<svg width="108" height="108" xmlns="http://www.w3.org/2000/svg">
  <path stroke="null" opacity="0.3" d="m46.851312,52.949087l0,-12.948954c-3.560975,0 -6.474487,2.913512 -6.474487,6.474467s2.913512,6.474487 6.474487,6.474487z"/>
  
  <path stroke="null" d="m46.759945,58.391703l0,15.244792l6.379973,0l0,-33.538575l6.379994,0l0,33.538575l6.379973,0l0,-33.538575l6.379972,0l0,-6.09792l-25.519911,0c-7.049862,0 -12.759945,5.457647 -12.759945,12.195841s5.710083,12.195842 12.759945,12.195842l0,0.00002zm0,-18.293783l0,12.195842c-3.508973,0 -6.379973,-2.744056 -6.379973,-6.097921s2.870999,-6.097921 6.379973,-6.097921z"/>
</svg>